<svg width="89" height="89" viewBox="0 0 89 89" fill="none" xmlns="http://www.w3.org/2000/svg">
<path d="M66.5018 45.9142L65.7947 45.2071H65.7947L66.5018 45.9142ZM67.2089 45.2071L67.916 45.9142H67.916L67.2089 45.2071ZM49.2366 63.1794L48.5295 62.4723V62.4723L49.2366 63.1794ZM48.5295 63.8865L49.2366 64.5936L48.5295 65.3007L47.8224 64.5936L48.5295 63.8865ZM47.1153 62.4723L46.4082 63.1794L45.7011 62.4723L46.4082 61.7652L47.1153 62.4723ZM47.8224 61.7652L48.5295 62.4723L48.5295 62.4723L47.8224 61.7652ZM64.0817 45.5059L64.0763 44.5059L66.509 44.4928L64.7888 46.213L64.0817 45.5059ZM22.2039 45.7323L22.1984 44.7324H22.1984L22.2039 45.7323ZM21.2039 45.7377L21.2093 46.7377L20.2093 46.7431L20.2039 45.7432L21.2039 45.7377ZM21.1931 43.7378L20.1931 43.7432L20.1877 42.7432L21.1877 42.7378L21.1931 43.7378ZM22.193 43.7324L22.1984 44.7324L22.193 43.7324ZM64.0934 43.5058L64.8005 42.7987L66.4947 44.4929L64.0988 44.5058L64.0934 43.5058ZM47.8224 27.2348L48.5295 26.5277L48.5295 26.5277L47.8224 27.2348ZM47.1153 26.5277L46.4082 27.2348L45.7011 26.5277L46.4082 25.8206L47.1153 26.5277ZM48.5295 25.1135L47.8224 24.4064L48.5295 23.6993L49.2366 24.4064L48.5295 25.1135ZM49.2366 25.8206L48.5295 26.5277V26.5277L49.2366 25.8206ZM66.5018 43.0858L65.7947 43.7929H65.7947L66.5018 43.0858ZM67.2089 43.7929L67.916 43.0858H67.916L67.2089 43.7929ZM67.916 44.5L68.6231 43.7929L69.3302 44.5L68.6231 45.2071L67.916 44.5ZM65.7947 45.2071L66.5018 44.5L67.916 45.9142L67.2089 46.6213L65.7947 45.2071ZM48.5295 62.4723L65.7947 45.2071L67.2089 46.6213L49.9438 63.8865L48.5295 62.4723ZM47.8224 63.1794L48.5295 62.4723L49.9438 63.8865L49.2366 64.5936L47.8224 63.1794ZM47.8224 61.7652L49.2366 63.1794L47.8224 64.5936L46.4082 63.1794L47.8224 61.7652ZM48.5295 62.4723L47.8224 63.1794L46.4082 61.7652L47.1153 61.0581L48.5295 62.4723ZM64.7888 46.213L48.5295 62.4723L47.1153 61.0581L63.3746 44.7988L64.7888 46.213ZM22.1984 44.7324L64.0763 44.5059L64.0871 46.5059L22.2093 46.7323L22.1984 44.7324ZM21.1985 44.7378L22.1984 44.7324L22.2093 46.7323L21.2093 46.7377L21.1985 44.7378ZM22.193 43.7324L22.2039 45.7323L20.2039 45.7432L20.1931 43.7432L22.193 43.7324ZM22.1984 44.7324L21.1985 44.7378L21.1877 42.7378L22.1876 42.7324L22.1984 44.7324ZM64.0988 44.5058L22.1984 44.7324L22.1876 42.7324L64.088 42.5059L64.0988 44.5058ZM48.5295 26.5277L64.8005 42.7987L63.3863 44.2129L47.1153 27.942L48.5295 26.5277ZM47.8224 25.8206L48.5295 26.5277L47.1153 27.942L46.4082 27.2348L47.8224 25.8206ZM49.2366 25.8206L47.8224 27.2348L46.4082 25.8206L47.8224 24.4064L49.2366 25.8206ZM48.5295 26.5277L47.8224 25.8206L49.2366 24.4064L49.9438 25.1135L48.5295 26.5277ZM65.7947 43.7929L48.5295 26.5277L49.9438 25.1135L67.2089 42.3787L65.7947 43.7929ZM66.5018 44.5L65.7947 43.7929L67.2089 42.3787L67.916 43.0858L66.5018 44.5ZM67.2089 45.2071L66.5018 44.5L67.916 43.0858L68.6231 43.7929L67.2089 45.2071ZM66.5018 44.5L67.2089 43.7929L68.6231 45.2071L67.916 45.9142L66.5018 44.5Z" fill="black"/>
<circle r="43.5" transform="matrix(-1 0 0 1 44.5 44.5)" stroke="black" stroke-width="2"/>
</svg>
