<svg width="89" height="89" viewBox="0 0 89 89" fill="none" xmlns="http://www.w3.org/2000/svg">
<path d="M22.4982 45.9142L23.2053 45.2071H23.2053L22.4982 45.9142ZM21.7911 45.2071L21.084 45.9142H21.084L21.7911 45.2071ZM39.7634 63.1794L40.4705 62.4723V62.4723L39.7634 63.1794ZM40.4705 63.8865L39.7634 64.5936L40.4705 65.3007L41.1776 64.5936L40.4705 63.8865ZM41.8847 62.4723L42.5918 63.1794L43.2989 62.4723L42.5918 61.7652L41.8847 62.4723ZM41.1776 61.7652L40.4705 62.4723L40.4705 62.4723L41.1776 61.7652ZM24.9183 45.5059L24.9237 44.5059L22.491 44.4928L24.2112 46.213L24.9183 45.5059ZM66.7961 45.7323L66.8016 44.7324H66.8016L66.7961 45.7323ZM67.7961 45.7377L67.7907 46.7377L68.7907 46.7431L68.7961 45.7432L67.7961 45.7377ZM67.8069 43.7378L68.8069 43.7432L68.8123 42.7432L67.8123 42.7378L67.8069 43.7378ZM66.807 43.7324L66.8016 44.7324L66.807 43.7324ZM24.9066 43.5058L24.1995 42.7987L22.5053 44.4929L24.9012 44.5058L24.9066 43.5058ZM41.1776 27.2348L40.4705 26.5277L40.4705 26.5277L41.1776 27.2348ZM41.8847 26.5277L42.5918 27.2348L43.2989 26.5277L42.5918 25.8206L41.8847 26.5277ZM40.4705 25.1135L41.1776 24.4064L40.4705 23.6993L39.7634 24.4064L40.4705 25.1135ZM39.7634 25.8206L40.4705 26.5277V26.5277L39.7634 25.8206ZM22.4982 43.0858L23.2053 43.7929H23.2053L22.4982 43.0858ZM21.7911 43.7929L21.084 43.0858H21.084L21.7911 43.7929ZM21.084 44.5L20.3769 43.7929L19.6698 44.5L20.3769 45.2071L21.084 44.5ZM23.2053 45.2071L22.4982 44.5L21.084 45.9142L21.7911 46.6213L23.2053 45.2071ZM40.4705 62.4723L23.2053 45.2071L21.7911 46.6213L39.0562 63.8865L40.4705 62.4723ZM41.1776 63.1794L40.4705 62.4723L39.0562 63.8865L39.7634 64.5936L41.1776 63.1794ZM41.1776 61.7652L39.7634 63.1794L41.1776 64.5936L42.5918 63.1794L41.1776 61.7652ZM40.4705 62.4723L41.1776 63.1794L42.5918 61.7652L41.8847 61.0581L40.4705 62.4723ZM24.2112 46.213L40.4705 62.4723L41.8847 61.0581L25.6254 44.7988L24.2112 46.213ZM66.8016 44.7324L24.9237 44.5059L24.9129 46.5059L66.7907 46.7323L66.8016 44.7324ZM67.8015 44.7378L66.8016 44.7324L66.7907 46.7323L67.7907 46.7377L67.8015 44.7378ZM66.807 43.7324L66.7961 45.7323L68.7961 45.7432L68.8069 43.7432L66.807 43.7324ZM66.8016 44.7324L67.8015 44.7378L67.8123 42.7378L66.8124 42.7324L66.8016 44.7324ZM24.9012 44.5058L66.8016 44.7324L66.8124 42.7324L24.912 42.5059L24.9012 44.5058ZM40.4705 26.5277L24.1995 42.7987L25.6137 44.2129L41.8847 27.942L40.4705 26.5277ZM41.1776 25.8206L40.4705 26.5277L41.8847 27.942L42.5918 27.2348L41.1776 25.8206ZM39.7634 25.8206L41.1776 27.2348L42.5918 25.8206L41.1776 24.4064L39.7634 25.8206ZM40.4705 26.5277L41.1776 25.8206L39.7634 24.4064L39.0562 25.1135L40.4705 26.5277ZM23.2053 43.7929L40.4705 26.5277L39.0562 25.1135L21.7911 42.3787L23.2053 43.7929ZM22.4982 44.5L23.2053 43.7929L21.7911 42.3787L21.084 43.0858L22.4982 44.5ZM21.7911 45.2071L22.4982 44.5L21.084 43.0858L20.3769 43.7929L21.7911 45.2071ZM22.4982 44.5L21.7911 43.7929L20.3769 45.2071L21.084 45.9142L22.4982 44.5Z" fill="black"/>
<circle cx="44.5" cy="44.5" r="43.5" stroke="black" stroke-width="2"/>
</svg>
